<svg id="Layer_1" enable-background="new 0 0 511.382 511.382" height="512" viewBox="0 0 511.382 511.382" width="512" xmlns="http://www.w3.org/2000/svg"><g><path clip-rule="evenodd" d="m245.693 54.52v388.6c0 32.364 26.236 58.6 58.6 58.6 28.42 0 52.112-20.232 57.465-47.079 31.946-5.194 56.335-32.907 56.335-66.321 0-4.262-.402-8.431-1.16-12.472 28.589-11.569 48.76-39.591 48.76-72.329 0-30.816-17.872-57.454-43.815-70.125 13.871-12.31 22.615-30.27 22.615-50.274 0-26.997-15.922-50.27-38.885-60.956 1.867-5.336 2.885-11.071 2.885-17.045 0-28.498-23.102-51.6-51.6-51.6-7.713 0-15.029 1.695-21.6 4.729v-3.728c0-24.64-20.16-44.8-44.8-44.8s-44.8 20.16-44.8 44.8z" fill="#e38eba" fill-rule="evenodd"/><g><path d="m332.069 108.044c-11.499 11.986-32.194 11.985-43.693 0-9.756-9.008-23.147 4.397-14.143 14.143 18.945 19.744 53.034 19.744 71.979 0 9.008-9.756-4.397-23.148-14.143-14.143z"/><path d="m475.693 303.519c0-29.417-14.255-56.128-37.938-72.41 28.932-35.361 18.765-90.896-20.431-114.002 9.026-42.397-30.591-81.669-72.898-72.329-13.498-64.961-106.788-57.109-108.733 9.742v149.304c.528 13.268 19.477 13.258 20 0v-149.304c1.64-44.827 65.106-46.68 69.529-2.241-8.971 5.362-16.39 12.885-21.676 22.04-2.762 4.783-1.123 10.899 3.66 13.66 4.698 2.737 10.883 1.167 13.66-3.66 4.324-7.489 10.761-13.361 18.616-16.981.107-.049.212-.101.316-.153 32.875-14.918 68.174 17.155 56.496 51.31-.047.12-.093.24-.136.363-3.288 9.396-9.845 17.311-18.466 22.288-4.783 2.762-6.422 8.877-3.661 13.661 2.778 4.827 8.962 6.396 13.661 3.661 9.31-5.375 16.995-13.065 22.362-22.231 27.869 18.94 32.746 60.534 9.611 85.299-3.01-1.174-6.084-2.183-9.196-3.016-5.335-1.431-10.818 1.736-12.247 7.071-1.43 5.334 1.736 10.818 7.071 12.247 4.191 1.123 8.294 2.657 12.197 4.559.141.069.282.133.424.195 52.095 25.347 49.385 102.096-4.268 123.797-.156.054-.312.113-.467.176-13.592 5.535-28.916 6.458-43.086 2.64-5.336-1.43-10.818 1.736-12.247 7.071-1.43 5.334 1.736 10.818 7.071 12.247 14.021 3.776 29.083 3.987 43.17.61-.381 27.751-20.299 51.023-47.681 55.597-.089.012-.177.025-.266.04-7.983 1.309-16.242.897-24.051-1.196-5.337-1.429-10.818 1.736-12.248 7.071-1.43 5.334 1.736 10.818 7.071 12.248 5.412 1.45 10.969 2.306 16.561 2.554-23.669 44.652-91.149 28.659-91.78-22.323v-149.3c-.528-13.268-19.477-13.258-20 0v149.296c1.581 78.79 109.985 94.496 134.225 20.028 15.311-3.891 29.179-12.462 39.575-24.571 13.41-15.569 20.083-36.222 18.33-56.718 29.322-14.971 47.87-44.929 47.87-78.34z"/><path d="m332.414 344.589c5.334-1.429 8.5-6.913 7.071-12.248s-6.912-8.501-12.247-7.072c-11.117 2.979-20.41 10.108-26.166 20.077-5.754 9.967-7.283 21.58-4.304 32.697 1.41 5.379 7.056 8.506 12.247 7.072 5.334-1.429 8.5-6.913 7.071-12.248-1.596-5.958-.776-12.18 2.307-17.521 3.085-5.341 8.064-9.161 14.021-10.757z"/><path d="m358.242 191.674c-3.905-3.905-10.237-3.905-14.143 0-19.745 18.946-19.744 53.033 0 71.979 9.741 9.014 23.154-4.411 14.143-14.143-11.987-11.5-11.986-32.193 0-43.693 3.905-3.905 3.905-10.237 0-14.143z"/><path d="m45.689 245.721c5.523 0 10-4.477 10-10v-70c-.528-13.268-19.477-13.258-20 0v70c0 5.523 4.477 10 10 10z"/><path d="m105.69 155.721c-16.542 0-30 13.458-30 30v30c1.652 39.808 58.363 39.778 60 0v-30c0-16.542-13.458-30-30-30zm10 60c-.551 13.268-19.454 13.259-20 0v-30c0-5.514 4.486-10 10-10h.001c5.514 0 10 4.486 10 10v30z"/><path d="m185.692 155.721c-16.542 0-30 13.458-30 30v30c1.652 39.808 58.363 39.778 60 0v-30c0-16.542-13.458-30-30-30zm10 60c-.551 13.269-19.455 13.259-20 0v-30c0-5.514 4.486-10 10-10 5.514 0 10 4.486 10 10z"/><path d="m85.688 135.72c5.523 0 10-4.477 10-10v-70c-.528-13.268-19.477-13.258-20 0v70c0 5.523 4.477 10 10 10z"/><path d="m175.69 105.72v-30c-1.652-39.808-58.363-39.778-60 0v30c1.653 39.808 58.363 39.778 60 0zm-20 0c-.551 13.269-19.455 13.26-20 0v-30c0-5.514 4.486-10 10-10 5.514 0 10 4.486 10 10z"/><path d="m205.691 135.72c5.523 0 10-4.477 10-10v-70c-.528-13.268-19.477-13.258-20 0v70c0 5.523 4.477 10 10 10z"/><path d="m125.69 265.722c-5.523 0-10 4.477-10 10v70c.528 13.268 19.477 13.258 20 0v-70c0-5.523-4.477-10-10-10z"/><path d="m95.688 325.722v-30c-1.652-39.808-58.363-39.778-60 0v30c1.653 39.809 58.363 39.778 60 0zm-20 0c-.551 13.269-19.454 13.26-20 0v-30c0-5.514 4.486-10 10-10 5.514 0 10 4.486 10 10z"/><path d="m185.692 265.722c-16.542 0-30 13.458-30 30v30c1.653 39.809 58.363 39.778 60 0v-30c0-16.542-13.458-30-30-30zm10 60c-.551 13.269-19.455 13.26-20 0v-30c0-5.514 4.486-10 10-10 5.514 0 10 4.486 10 10z"/><path d="m165.689 375.72c-5.523 0-10 4.477-10 10v70c.528 13.268 19.477 13.258 20 0v-70c0-5.523-4.477-10-10-10z"/><path d="m105.688 375.72c-16.542 0-30 13.458-30 30v30c1.653 39.808 58.362 39.779 60 0v-30c0-16.543-13.458-30-30-30zm10 60c-.551 13.27-19.454 13.259-20 0v-30c.551-13.268 19.454-13.259 20 0z"/><path d="m205.691 375.72c-5.523 0-10 4.477-10 10v70c.528 13.268 19.477 13.258 20 0v-70c0-5.523-4.477-10-10-10z"/><path d="m245.693 258.827c5.523 0 10-4.477 10-10v-.007c0-5.523-4.477-9.996-10-9.996-13.263.528-13.262 19.479 0 20.003z"/></g></g></svg>